<?xml version="1.0" encoding="UTF-8"?>
<svg version="1.1" xmlns="http://www.w3.org/2000/svg" width="512" height="512">
<path d="M0 0 C2.80055269 2.21605834 5.36751836 4.49138166 7.88671875 7.01953125 C13.21919768 12.01688211 18.45661113 12.82256741 25.4375 14.0625 C63.84339272 21.58112956 101.07437728 38.67367281 131 64 C131.61037109 64.51030762 132.22074219 65.02061523 132.84960938 65.54638672 C145.39740087 76.06363602 156.90545949 87.05965818 167 100 C167.78890625 100.98355469 168.5778125 101.96710938 169.390625 102.98046875 C178.49158491 114.43000542 186.2245579 126.75373702 193.45703125 139.44921875 C194.84682004 141.74676832 196.32277209 143.78396783 198 145.875 C207.50945598 158.20678115 211.29317304 172.92354358 213.37109375 188.10546875 C214.37648542 194.33140352 215.76481284 200.48056318 217.14819336 206.63256836 C220.61886257 222.60996073 221.3777161 238.32638111 221.3125 254.625 C221.31034485 255.59555328 221.3081897 256.56610657 221.30596924 257.56607056 C221.2549334 271.89430898 220.90758438 285.92185782 218 300 C217.80132324 300.98307129 217.60264648 301.96614258 217.39794922 302.97900391 C205.87721943 358.37343423 175.95782515 410.92916544 131 446 C130.01644531 446.78890625 129.03289062 447.5778125 128.01953125 448.390625 C106.21279176 465.73915881 81.4196885 479.16098474 55 488 C54.16662109 488.27924316 53.33324219 488.55848633 52.47460938 488.84619141 C43.37092144 491.8413823 34.20233791 494.32754123 24.8125 496.25 C24.07829834 496.40114258 23.34409668 496.55228516 22.58764648 496.70800781 C7.20842501 499.65767558 -8.00201526 500.37501267 -23.625 500.3125 C-24.59555328 500.31034485 -25.56610657 500.3081897 -26.56607056 500.30596924 C-40.89430898 500.2549334 -54.92185782 499.90758438 -69 497 C-70.47460693 496.70198486 -70.47460693 496.70198486 -71.97900391 496.39794922 C-127.34940661 484.88221661 -179.9627349 454.96639235 -215 410 C-216.00748515 408.7445289 -217.01532077 407.489339 -218.0234375 406.234375 C-252.27279768 363.11108285 -269.48900058 309.89249099 -269.375 255.125 C-269.37445618 254.13788025 -269.37391235 253.1507605 -269.37335205 252.13372803 C-269.33289301 236.11356458 -268.46519504 220.6968359 -265 205 C-264.78037598 204.00468262 -264.56075195 203.00936523 -264.33447266 201.98388672 C-262.79512914 195.24803323 -260.98929679 188.61590961 -259 182 C-258.75975098 181.18611816 -258.51950195 180.37223633 -258.27197266 179.53369141 C-249.51758548 150.53219076 -234.14138288 123.36199836 -215 100 C-214.54302734 99.44151367 -214.08605469 98.88302734 -213.61523438 98.30761719 C-203.18369971 85.63873713 -191.97574321 74.08618695 -179 64 C-178.01773438 63.21238281 -177.03546875 62.42476563 -176.0234375 61.61328125 C-158.35315356 47.55156065 -138.71250609 36.53431126 -118.109375 27.34375 C-114.24047771 25.60855339 -110.66318852 23.73020756 -107.125 21.375 C-102.05669384 18.03143086 -102.05669384 18.03143086 -99.37890625 16.546875 C-96.82135943 14.88383963 -95.54713536 13.36324301 -93.8125 10.875 C-85.19795297 -0.54298799 -73.86241257 -8.43319355 -59.78125 -11.52734375 C-38.57464982 -14.17816877 -18.21943531 -11.70925236 0 0 Z " fill="#4FAAF6" transform="translate(280,12)"/>
<path d="M0 0 C12.51250324 1.66592566 25.23180864 1.64173001 37.75 0 C37.59015625 0.94230469 37.4303125 1.88460937 37.265625 2.85546875 C36.58330878 7.66918548 36.52788352 12.45728153 36.5 17.3125 C36.479375 18.19873047 36.45875 19.08496094 36.4375 19.99804688 C36.37166038 31.28131213 40.5115527 40.14276395 45.69726562 49.94335938 C48.41412186 55.36368831 49.65540856 59.92104455 48.75 66 C46.74254776 70.62586822 44.54505094 72.30137515 40.0625 74.25 C39.27488281 74.54390625 38.48726562 74.8378125 37.67578125 75.140625 C35.56685348 75.83750547 35.56685348 75.83750547 34.75 78 C34.61956418 79.92571699 34.54732646 81.85551532 34.50390625 83.78515625 C34.45459961 85.54182617 34.45459961 85.54182617 34.40429688 87.33398438 C34.34377407 89.79224028 34.28640941 92.25057626 34.23242188 94.70898438 C33.93190462 105.09100512 33.51857522 114.0325084 25.9375 121.875 C21.73115702 124.0382621 17.59420551 123.26061471 13.20703125 121.90625 C12.00433594 121.4421875 10.80164063 120.978125 9.5625 120.5 C3.12076736 118.18322945 -3.39525474 116.43965767 -10.25 118 C-13.26015342 120.36771103 -14.75065027 122.19336294 -15.25 126 C-15.91521783 132.60855748 -15.57729232 136.68361229 -11.25 142 C-8.13541467 146.31491671 -7.56392052 150.18119123 -6.875 155.3125 C-5.83021849 161.94227899 -4.53653905 166.71069731 -0.25 172 C5.55026537 179.71800016 10.78047192 187.07038877 13.84765625 196.3046875 C16.64278253 204.66164132 19.06057334 207.9285066 26.75 212 C29.39823674 213.56692736 32.01226418 215.18722598 34.625 216.8125 C35.31247314 217.2360376 35.99994629 217.6595752 36.70825195 218.09594727 C42.82395927 221.91835471 48.32404143 226.24079058 53.75 231 C51.76670257 251.85881777 34.0381751 272.74547807 19.75 287 C18.87859375 287.88300781 18.0071875 288.76601563 17.109375 289.67578125 C5.75782779 300.6024951 -7.91196391 307.77861078 -22.25 314 C-19.54675094 317.05250604 -16.99031696 319.31971853 -13.25 321 C-8.42826273 320.46001625 -4.45077823 318.30610624 -0.25 316 C0.65226318 315.52602783 0.65226318 315.52602783 1.57275391 315.04248047 C31.83271783 298.97559581 50.47796939 271.1520777 62.75 240 C71.01044678 246.10807685 76.54360344 255.26668964 81.75 264 C83.89062813 261.31205218 85.37798829 258.76562055 86.75 255.625 C95.07862882 238.81989687 110.09421777 226.39302309 124.49609375 214.91015625 C127.33374187 212.50528635 129.53535856 209.9783109 131.75 207 C132.9875 207.433125 134.225 207.86625 135.5 208.3125 C147.36018467 212.19234336 158.33555794 213.59997909 170.75 214 C169.09616809 226.22833292 167.08709771 238.11249491 163.75 250 C163.4912207 250.94665527 163.23244141 251.89331055 162.96582031 252.86865234 C154.98290018 281.90032289 144.07070459 309.7196512 129.06713867 335.83935547 C126.44708292 340.47887517 124.7094788 344.81579838 123.453125 350.01171875 C122.15534816 353.68154326 119.73061116 355.57825343 116.75 358 C113.14509368 359.20163544 109.69799822 359.31589583 105.9375 359.5 C101.14240128 359.73865007 96.48440322 360.18146556 91.75 361 C73.87947804 362.60781982 55.91266973 355.4792679 41.1875 345.8125 C34.36792396 341.40033711 27.63329086 339.65734469 19.75 338 C19.70482239 338.6935408 19.65964478 339.3870816 19.61309814 340.10163879 C19.00115579 348.44855826 17.79374261 356.63565998 16.421875 364.88671875 C16.18819736 366.31501335 15.95499361 367.74338555 15.722229 369.17182922 C15.1099899 372.92276892 14.49255578 376.67283257 13.87359619 380.42266846 C12.77947065 387.05552525 11.69389403 393.68978558 10.609375 400.32421875 C10.43185448 401.40849466 10.43185448 401.40849466 10.25074768 402.51467514 C7.61085611 418.65533673 5.1594307 434.82352218 2.75 451 C-35.24649539 451.79635393 -70.95704666 443.90785725 -105.3125 427.5625 C-106.93454346 426.79280884 -106.93454346 426.79280884 -108.58935547 426.00756836 C-111.8512493 424.40901611 -115.04701121 422.71320459 -118.25 421 C-118.87859924 420.69902405 -119.50719849 420.3980481 -120.15484619 420.08795166 C-124.76615301 417.86997572 -128.61178809 415.64015246 -132.25 412 C-134.05017425 406.69444144 -133.79634316 401.74622754 -133.5 396.25 C-133.47248546 394.73376851 -133.45324092 393.2173664 -133.44189453 391.70092773 C-133.41656234 388.61523406 -133.36479717 385.53178432 -133.29589844 382.44677734 C-133.18785616 375.96266731 -133.62959548 369.52487498 -134.125 363.0625 C-134.21265625 361.87769043 -134.3003125 360.69288086 -134.390625 359.47216797 C-136.82902975 327.7772605 -141.31901446 296.47203504 -149.53393555 265.74145508 C-153.02848498 252.56193702 -154.66887972 240.082061 -154.625 226.4375 C-154.6237915 225.73723694 -154.62258301 225.03697388 -154.62133789 224.31549072 C-154.41701148 180.48872076 -132.38423946 143.35733404 -103.25 112 C-102.71117187 111.5359375 -102.17234375 111.071875 -101.6171875 110.59375 C-100.03183127 108.96110502 -100.03183127 108.96110502 -99.38671875 106.17578125 C-98.01843126 102.35303991 -95.89411102 99.98079423 -93.0625 97.1875 C-92.60552734 96.69830078 -92.14855469 96.20910156 -91.67773438 95.70507812 C-88.00027274 92.01741549 -85.25989573 91.65769179 -80.25 91 C-72.79992344 85.20682047 -66.06239728 75.8190317 -64.74609375 66.390625 C-64.508846 58.8905347 -65.5391796 52.62544577 -68.375 45.68359375 C-69.37883689 42.60486186 -69.52497799 40.21990355 -69.25 37 C-67.45006226 34.30009338 -66.166227 32.4581135 -63.25 31 C-57.14534886 30.49127907 -54.13047174 30.93294022 -49.25 35 C-47.06511344 38.27732984 -46.92780832 39.72267988 -46.6875 43.5625 C-46.51070947 47.42660649 -46.51070947 47.42660649 -45.25 51 C-42.33365871 51.2502157 -42.33365871 51.2502157 -39.25 51 C-37.09872188 47.77308282 -36.88771946 46.35685312 -36.5390625 42.58203125 C-36.43078125 41.49946045 -36.3225 40.41688965 -36.2109375 39.30151367 C-36.10007812 38.15013916 -35.98921875 36.99876465 -35.875 35.8125 C-33.0222733 8.83974619 -33.0222733 8.83974619 -27.25 1 C-20.58799609 -3.88252825 -7.80200508 -1.04507438 0 0 Z " fill="#3C58A0" transform="translate(254.25,61)"/>
<path d="M0 0 C2.91647974 4.37471961 3.45852665 9.01862462 4.5 14.125 C4.71269531 15.11371094 4.92539062 16.10242188 5.14453125 17.12109375 C8.49583538 33.30193027 9.37844498 49.14422164 9.3125 65.625 C9.30926727 67.08082993 9.30926727 67.08082993 9.30596924 68.56607056 C9.2549334 82.89430898 8.90758438 96.92185782 6 111 C5.80132324 111.98307129 5.60264648 112.96614258 5.39794922 113.97900391 C-6.12278057 169.37343423 -36.04217485 221.92916544 -81 257 C-81.98355469 257.78890625 -82.96710938 258.5778125 -83.98046875 259.390625 C-105.78720824 276.73915881 -130.5803115 290.16098474 -157 299 C-158.25006836 299.41886475 -158.25006836 299.41886475 -159.52539062 299.84619141 C-184.36677407 308.01921822 -208.91972724 311.45889043 -235 311 C-234.39451043 303.55524972 -233.53125074 296.18814635 -232.43359375 288.80078125 C-232.20163048 287.21944145 -232.20163048 287.21944145 -231.96498108 285.6061554 C-231.45972078 282.17434725 -230.94907067 278.74337278 -230.4375 275.3125 C-230.17646484 273.55193268 -230.17646484 273.55193268 -229.91015625 271.75579834 C-226.25164787 247.11803095 -222.20148875 222.55033901 -218 198 C-216.42286017 198.30827892 -214.84611371 198.61857066 -213.26953125 198.9296875 C-212.39143799 199.10226074 -211.51334473 199.27483398 -210.60864258 199.45263672 C-203.86060217 200.86855685 -198.65969629 203.09606168 -192.8125 206.8125 C-178.08091747 216.13108244 -160.81054589 222.56688966 -143.16015625 219.5078125 C-138.74083354 218.79766176 -134.302316 218.68648082 -129.83398438 218.5703125 C-124.5451619 218.32922658 -121.500371 217.06648192 -117.47631836 213.74072266 C-115.54758882 211.4665633 -115.01164908 209.36006072 -114.1875 206.5 C-112.17751278 200.15788124 -109.31169141 194.74369163 -106 189 C-87.98834084 156.61931719 -74.3536173 119.59561401 -69.51806641 82.74072266 C-69.37675293 81.76280762 -69.23543945 80.78489258 -69.08984375 79.77734375 C-68.97503662 78.90327881 -68.86022949 78.02921387 -68.74194336 77.12866211 C-68 75 -68 75 -66.11254883 73.73706055 C-63.35880108 72.77628804 -60.62748538 72.35011968 -57.75 71.875 C-43.72451146 68.99084421 -30.73941324 61.46986923 -21 51 C-20.39414062 50.39929688 -19.78828125 49.79859375 -19.1640625 49.1796875 C-8.76876983 38.38610776 -3.26227506 24.16060374 -1.3125 9.5 C-1.11817383 8.12328125 -1.11817383 8.12328125 -0.91992188 6.71875 C-0.605121 4.48016597 -0.29866447 2.24078382 0 0 Z " fill="#4FAAF6" transform="translate(492,201)"/>
<path d="M0 0 C1.47232163 1.93028213 2.90489406 3.85215903 4.21875 5.89453125 C11.71947633 17.12275267 24.05920017 20.86220418 36.36523438 24.74658203 C38.02788812 25.27226445 39.68927495 25.80197083 41.34936523 26.33569336 C42.97007172 26.85504553 44.59457477 27.36271968 46.22290039 27.85766602 C48.1796086 28.4818198 50.09537971 29.23143216 52 30 C53.11117537 33.3335261 52.73560418 35.54797082 52.15625 38.96484375 C51.98470674 41.19919478 52.35126543 42.86776211 53 45 C52.00742188 45.20753906 51.01484375 45.41507813 49.9921875 45.62890625 C33.53134802 49.27077517 18.34646907 55.97496502 8.6171875 70.36328125 C-0.74181454 85.30080174 -3.38864387 101.44550609 -0.33984375 118.74609375 C1.28304318 124.48591462 3.73608101 129.36365204 6.625 134.5625 C10.83941414 142.65058841 11.19273309 150.47623367 11.80078125 159.45507812 C13.7287502 184.08393637 22.24175295 206.13554882 32.46575928 228.36425781 C53.63161677 274.40565106 53.63161677 274.40565106 58 298 C58.22171875 299.08410156 58.4434375 300.16820312 58.671875 301.28515625 C59.82798719 307.58909232 60.19446647 313.79387202 60.25 320.1875 C60.2593457 320.91187256 60.26869141 321.63624512 60.27832031 322.38256836 C60.24476552 328.09269084 59.26892012 333.44233222 58 339 C35.98879278 334.57105133 14.98030826 328.20124316 -5.3125 318.5 C-6.37815186 317.99082031 -7.44380371 317.48164063 -8.54174805 316.95703125 C-11.73706286 315.37592665 -14.86389521 313.69516628 -18 312 C-18.93649384 311.55013733 -18.93649384 311.55013733 -19.89190674 311.09118652 C-24.50479596 308.86993794 -28.35539871 306.63781914 -32 303 C-33.80134171 297.6950656 -33.54633191 292.74601898 -33.25 287.25 C-33.22248546 285.73376851 -33.20324092 284.2173664 -33.19189453 282.70092773 C-33.16656234 279.61523406 -33.11479717 276.53178432 -33.04589844 273.44677734 C-32.93785616 266.96266731 -33.37959548 260.52487498 -33.875 254.0625 C-33.96265625 252.87769043 -34.0503125 251.69288086 -34.140625 250.47216797 C-36.57902975 218.7772605 -41.06901446 187.47203504 -49.28393555 156.74145508 C-52.77848498 143.56193702 -54.41887972 131.082061 -54.375 117.4375 C-54.3737915 116.73723694 -54.37258301 116.03697388 -54.37133789 115.31549072 C-54.16579076 71.22688347 -31.64585063 32.02779531 -1.2421875 1.21875 C-0.83226562 0.8165625 -0.42234375 0.414375 0 0 Z " fill="#2A428C" transform="translate(154,170)"/>
<path d="M0 0 C9.1396941 5.95323612 18.87663798 15.29268814 21.54296875 26.2265625 C22.0869397 29.52758277 22.28353528 32.71700209 22.375 36.0625 C22.42398438 37.27035156 22.47296875 38.47820312 22.5234375 39.72265625 C21.87351865 50.39398783 14.69080992 60.77167849 9.8125 70.0625 C9.14336076 71.34645148 8.47466482 72.63063408 7.80639648 73.91503906 C4.49422027 80.27324925 1.14914305 86.61374596 -2.21459961 92.94482422 C-32.22267268 149.51025163 -45.31475155 207.53872833 -27 270.00390625 C-6.78581538 339.54110888 -6.78581538 339.54110888 -14 363 C-14.66 363.99 -15.32 364.98 -16 366 C-23.85711088 358.36147953 -31.26713207 350.66926301 -38 342 C-39.00597354 340.74566299 -40.01252341 339.49178805 -41.01953125 338.23828125 C-75.27370341 295.11826282 -92.48899929 241.89187119 -92.375 187.125 C-92.37445618 186.13788025 -92.37391235 185.1507605 -92.37335205 184.13372803 C-92.33289301 168.11356458 -91.46519504 152.6968359 -88 137 C-87.78037598 136.00468262 -87.56075195 135.00936523 -87.33447266 133.98388672 C-85.79512914 127.24803323 -83.98929679 120.61590961 -82 114 C-81.75975098 113.18611816 -81.51950195 112.37223633 -81.27197266 111.53369141 C-72.51758548 82.53219076 -57.14138288 55.36199836 -38 32 C-37.54302734 31.44151367 -37.08605469 30.88302734 -36.61523438 30.30761719 C-8.94557104 -3.29660859 -8.94557104 -3.29660859 0 0 Z " fill="#72C2F9" transform="translate(103,80)"/>
<path d="M0 0 C1.78993003 1.39246028 3.56067379 2.80989581 5.3125 4.25 C6.2509375 5.00152344 7.189375 5.75304687 8.15625 6.52734375 C18.94511389 15.67120229 24.98117915 26.92285892 29.3125 40.25 C29.55871094 40.9821875 29.80492187 41.714375 30.05859375 42.46875 C35.0913678 60.517319 30.36845076 81.35185148 21.609375 97.36328125 C11.37089574 114.0353995 -4.32672597 126.57522305 -23.34375 131.77734375 C-43.85413276 135.91360427 -64.04134213 133.62613928 -81.91943359 122.45654297 C-87.03546526 118.96532114 -91.37495494 114.66709161 -95.6875 110.25 C-96.35265625 109.60546875 -97.0178125 108.9609375 -97.703125 108.296875 C-112.48176197 92.98567454 -115.2889986 73.10189743 -115.02734375 52.7734375 C-114.75373314 44.83305322 -113.1066799 38.47116876 -109.6875 31.25 C-109.19121094 30.13882813 -108.69492187 29.02765625 -108.18359375 27.8828125 C-99.65896046 10.42272022 -83.97171422 -2.84330945 -65.78808594 -9.43896484 C-43.81251573 -16.70643227 -19.01408155 -13.36927609 0 0 Z " fill="#4F71B6" transform="translate(460.6875,141.75)"/>
<path d="M0 0 C1.2375 0.433125 2.475 0.86625 3.75 1.3125 C15.61018467 5.19234336 26.58555794 6.59997909 39 7 C37.34616809 19.22833292 35.33709771 31.11249491 32 43 C31.7412207 43.94665527 31.48244141 44.89331055 31.21582031 45.86865234 C23.23290018 74.90032289 12.32070459 102.7196512 -2.68286133 128.83935547 C-5.30291708 133.47887517 -7.0405212 137.81579838 -8.296875 143.01171875 C-9.59465184 146.68154326 -12.01938884 148.57825343 -15 151 C-18.60490632 152.20163544 -22.05200178 152.31589583 -25.8125 152.5 C-30.60759872 152.73865007 -35.26559678 153.18146556 -40 154 C-57.83087942 155.60425316 -75.837267 148.52136267 -90.5 138.8125 C-95.7645799 135.42812721 -100.73988557 133.80909549 -106.77075195 132.49829102 C-119.76081901 129.60695851 -132.22794329 123.80974112 -143 116 C-143.33 115.34 -143.66 114.68 -144 114 C-142.98421875 113.5875 -141.9684375 113.175 -140.921875 112.75 C-106.88378749 98.61142161 -85.00740373 71.33605581 -71 38 C-70.32723284 36.3357865 -69.65793165 34.67013418 -69 33 C-60.73955322 39.10807685 -55.20639656 48.26668964 -50 57 C-47.85937187 54.31205218 -46.37201171 51.76562055 -45 48.625 C-36.67137118 31.81989687 -21.65578223 19.39302309 -7.25390625 7.91015625 C-4.41625813 5.50528635 -2.21464144 2.9783109 0 0 Z " fill="#FBAD6D" transform="translate(386,268)"/>
<path d="M0 0 C12.51250324 1.66592566 25.23180864 1.64173001 37.75 0 C37.59015625 0.94230469 37.4303125 1.88460937 37.265625 2.85546875 C36.58330878 7.66918548 36.52788352 12.45728153 36.5 17.3125 C36.479375 18.19873047 36.45875 19.08496094 36.4375 19.99804688 C36.37166038 31.28131213 40.5115527 40.14276395 45.69726562 49.94335938 C48.41412186 55.36368831 49.65540856 59.92104455 48.75 66 C46.74254776 70.62586822 44.54505094 72.30137515 40.0625 74.25 C39.27488281 74.54390625 38.48726562 74.8378125 37.67578125 75.140625 C35.56685348 75.83750547 35.56685348 75.83750547 34.75 78 C34.61956418 79.92571699 34.54732646 81.85551532 34.50390625 83.78515625 C34.45459961 85.54182617 34.45459961 85.54182617 34.40429688 87.33398438 C34.34377407 89.79224028 34.28640941 92.25057626 34.23242188 94.70898438 C33.93190462 105.09100512 33.51857522 114.0325084 25.9375 121.875 C21.73115702 124.0382621 17.59420551 123.26061471 13.20703125 121.90625 C12.00433594 121.4421875 10.80164063 120.978125 9.5625 120.5 C3.12076736 118.18322945 -3.39525474 116.43965767 -10.25 118 C-13.26015342 120.36771103 -14.75065027 122.19336294 -15.25 126 C-15.91521783 132.60855748 -15.57729232 136.68361229 -11.25 142 C-6.9859455 147.74007336 -6.25 155.00775248 -6.25 162 C-9.25 161 -9.25 161 -11.375 158.8125 C-18.6040053 151.41389926 -27.96507082 147.6901885 -37.34863281 143.79785156 C-39.15776195 143.03870492 -40.95057577 142.2410182 -42.7421875 141.44140625 C-46.53175125 139.88422471 -50.31089092 138.72725506 -54.25 137.625 C-89.43373851 127.44642037 -89.43373851 127.44642037 -97.6875 114.5625 C-99.46435506 110.51127047 -99.78069001 108.38052019 -99.25 104 C-97.73078585 101.5046425 -95.8058954 99.61967505 -93.6875 97.625 C-92.91696289 96.82642578 -92.91696289 96.82642578 -92.13085938 96.01171875 C-88.27752302 92.24933071 -85.65425015 91.67397115 -80.25 91 C-72.79992344 85.20682047 -66.06239728 75.8190317 -64.74609375 66.390625 C-64.508846 58.8905347 -65.5391796 52.62544577 -68.375 45.68359375 C-69.37883689 42.60486186 -69.52497799 40.21990355 -69.25 37 C-67.45006226 34.30009338 -66.166227 32.4581135 -63.25 31 C-57.14534886 30.49127907 -54.13047174 30.93294022 -49.25 35 C-47.06511344 38.27732984 -46.92780832 39.72267988 -46.6875 43.5625 C-46.51070947 47.42660649 -46.51070947 47.42660649 -45.25 51 C-42.33365871 51.2502157 -42.33365871 51.2502157 -39.25 51 C-37.09872188 47.77308282 -36.88771946 46.35685312 -36.5390625 42.58203125 C-36.43078125 41.49946045 -36.3225 40.41688965 -36.2109375 39.30151367 C-36.10007813 38.15013916 -35.98921875 36.99876465 -35.875 35.8125 C-33.0222733 8.83974619 -33.0222733 8.83974619 -27.25 1 C-20.58799609 -3.88252825 -7.80200508 -1.04507438 0 0 Z " fill="#F8B98F" transform="translate(254.25,61)"/>
<path d="M0 0 C3.14572422 2.78497603 6.0772525 5.69168465 8.91015625 8.79296875 C14.15187675 14.42586242 20.03462018 18.00230499 26.6640625 21.78125 C31.96059441 24.87496161 31.96059441 24.87496161 34.0546875 26.76171875 C34.5546875 29.69921875 34.5546875 29.69921875 34.0546875 32.76171875 C30.82720907 36.8372336 26.64169789 38.70124097 22.0546875 40.88671875 C21.343125 41.23347656 20.6315625 41.58023438 19.8984375 41.9375 C18.53527342 42.60127953 17.17004778 43.26084731 15.80249023 43.91552734 C14.46831991 44.56146035 13.1500591 45.24035812 11.83984375 45.93359375 C-0.52254174 51.66844216 -17.70645146 49.24378177 -30.7824707 47.48022461 C-43.63988998 45.55981907 -43.63988998 45.55981907 -55.9453125 47.76171875 C-57.18813202 49.96019313 -57.18813202 49.96019313 -57.9453125 52.76171875 C-58.26371094 53.77621094 -58.58210938 54.79070312 -58.91015625 55.8359375 C-61.59451346 65.80794722 -62.89655766 75.68884506 -63.81811523 85.9753418 C-63.92325439 87.05468994 -64.02839355 88.13403809 -64.13671875 89.24609375 C-64.22123291 90.21256836 -64.30574707 91.17904297 -64.39282227 92.17480469 C-65.0202017 95.11237097 -65.85496168 96.61818389 -67.9453125 98.76171875 C-71.0078125 99.19921875 -71.0078125 99.19921875 -73.9453125 98.76171875 C-76.15693911 95.44427883 -76.15721582 94.25174927 -76.2578125 90.38671875 C-76.55535254 86.22115816 -76.72419378 85.04520428 -79.3828125 81.63671875 C-82.99951376 78.99035198 -85.34055754 78.33819721 -89.8984375 78.4296875 C-92.24944307 78.67365476 -92.24944307 78.67365476 -95.0078125 80.69921875 C-97.37518806 84.44119947 -97.25951534 86.15090581 -96.54296875 90.39453125 C-95.97294375 92.65227734 -95.2290176 94.72010666 -94.3828125 96.88671875 C-91.79735382 104.28113059 -91.45652994 112.68563446 -94.15234375 120.06640625 C-96.52888762 124.60289758 -98.64859438 127.88478574 -102.9453125 130.76171875 C-105.52296606 125.65962008 -108.01346073 120.52619662 -110.4465332 115.35375977 C-113.87345499 108.06912231 -117.3572026 100.86758958 -121.2578125 93.82421875 C-129.78069732 78.32479529 -133.64564343 61.60993995 -130.21484375 44.015625 C-125.82191163 31.05885408 -116.9526731 22.35391296 -105.22436523 15.93261719 C-100.42329316 13.25048159 -97.67172102 10.49977606 -94.59375 6.0234375 C-87.03448241 -4.34816424 -75.13722187 -11.0385459 -62.7265625 -13.765625 C-40.5646233 -16.5358674 -18.19521178 -13.82739569 0 0 Z " fill="#3C58A0" transform="translate(282.9453125,14.23828125)"/>
<path d="M0 0 C6.6 0.33 13.2 0.66 20 1 C18.29669671 13.26378368 16.34546903 25.08267436 13 37 C12.7412207 37.94665527 12.48244141 38.89331055 12.21582031 39.86865234 C4.23290018 68.90032289 -6.67929541 96.7196512 -21.68286133 122.83935547 C-24.30291708 127.47887517 -26.0405212 131.81579838 -27.296875 137.01171875 C-28.59465184 140.68154326 -31.01938884 142.57825343 -34 145 C-37.60490632 146.20163544 -41.05200178 146.31589583 -44.8125 146.5 C-49.60759872 146.73865007 -54.26559678 147.18146556 -59 148 C-73.89022231 149.33968077 -87.9030747 144.43409231 -101.07177734 137.93115234 C-102.9907904 137.00444738 -104.93570821 136.17053628 -106.89453125 135.33203125 C-110.47042184 133.66208657 -113.29130443 131.94228126 -116 129 C-118.03107649 121.54226354 -117.23180531 114.28337534 -113.5625 107.4375 C-107.93545778 99.55964089 -99.28994875 93.51366597 -89.8671875 91.24609375 C-84.91113408 90.93070853 -80.97849128 92.07039789 -76.25 93.4375 C-67.92884253 95.67063469 -60.35271662 97.60581499 -51.875 95.0625 C-37.58744808 84.81273449 -28.53585316 68.04420566 -20 53 C-19.61569824 52.32324219 -19.23139648 51.64648438 -18.83544922 50.94921875 C-13.20720459 40.93312678 -8.7357294 30.85771674 -5 20 C-4.52433594 18.70642578 -4.52433594 18.70642578 -4.0390625 17.38671875 C-1.99648309 11.69378702 -0.9814971 5.96448236 0 0 Z " fill="#F8B98F" transform="translate(405,274)"/>
<path d="M0 0 C15.1578607 -1.28395997 30.22526785 4.65251526 42 14 C50.3530062 21.44997851 56.57855016 31.72706378 60.1015625 42.30859375 C62.89031469 50.66536478 65.31373595 53.93018118 73 58 C75.64823674 59.56692736 78.26226418 61.18722598 80.875 62.8125 C81.56247314 63.2360376 82.24994629 63.6595752 82.95825195 64.09594727 C89.07395927 67.91835471 94.57404143 72.24079058 100 77 C99.44265565 82.86172505 97.13671978 87.63488541 94.625 92.875 C94.18236816 93.79958008 93.73973633 94.72416016 93.28369141 95.67675781 C87.22494818 107.98961908 79.56593267 119.13256229 70 129 C69.67 128.34 69.34 127.68 69 127 C68.34 127 67.68 127 67 127 C65.32453701 124.90868468 63.77642277 122.82160765 62.25 120.625 C61.79826416 119.98594727 61.34652832 119.34689453 60.88110352 118.68847656 C58.39062705 115.12848403 56.08216783 111.53186495 53.9375 107.75 C46.53648705 95.13933548 35.53424079 87.39400741 22.9375 80.5625 C9.71216645 73.38019111 0.15121058 63.73347607 -4.75 49.375 C-8.61281527 33.88081874 -7.19597074 14.39194147 0 0 Z " fill="#4F71B6" transform="translate(208,215)"/>
<path d="M0 0 C0.7115625 0.73476563 1.423125 1.46953125 2.15625 2.2265625 C9.47764335 9.36693239 17.63101314 14.65964483 26.796875 19.1015625 C35.83781823 24.4599752 39.26303526 29.45272494 42 39.5625 C42.6723996 41.83043242 43.34824111 44.09734694 44.02734375 46.36328125 C44.35847168 47.49072754 44.68959961 48.61817383 45.03076172 49.77978516 C49.53094446 64.7312739 55.6302954 79.17306359 61.5 93.625 C61.8291037 94.4360318 62.1582074 95.2470636 62.49728394 96.08267212 C66.96783655 107.09408309 66.96783655 107.09408309 71.5703125 118.05078125 C82.9754449 144.94133048 85.52161308 172.59313117 78 201 C67.86885065 200.53894171 57.99700135 199.7907672 48 198 C48.165 196.72125 48.33 195.4425 48.5 194.125 C51.67206632 160.27384451 40.72228977 130.40991593 27 100 C24.71733158 94.91747159 22.44756481 89.82927785 20.18508911 84.73773193 C19.21806512 82.56856185 18.24215991 80.40356038 17.26538086 78.23876953 C6.30606836 53.76115 -1.22668228 27.03244283 0 0 Z " fill="#B9E849" transform="translate(164,311)"/>
<path d="M0 0 C6.03059193 0.52404876 10.78705478 2.39491294 16.25 4.9375 C17.11971436 5.33718994 17.98942871 5.73687988 18.88549805 6.14868164 C51.80008533 21.45454416 84.36557499 43.07823471 107 72 C107 72.66 107 73.32 107 74 C106.25621094 73.855625 105.51242187 73.71125 104.74609375 73.5625 C89.77473036 71.01719147 72.43346792 69.60094716 58 75 C57.27780273 75.26876953 56.55560547 75.53753906 55.81152344 75.81445312 C46.9876184 79.13531551 38.32515933 82.76036467 29.8125 86.8125 C19.61955477 91.63899731 11.11439575 95.28813192 -0.0625 91.5625 C-7.94699225 88.03651589 -12.48702504 81.8496088 -16 74.125 C-19.55357079 63.90848398 -19.88162278 50.45672967 -16.1171875 40.203125 C-13.3615556 34.76894182 -9.70286193 29.98667225 -5.75 25.375 C-0.15735943 17.78498779 -0.34120102 9.03594417 0 0 Z " fill="#72C2F8" transform="translate(337,36)"/>
<path d="M0 0 C14.65384823 -0.57982853 27.96845947 5.05646299 39.0703125 14.43359375 C44.04816515 19.15900379 47.61254095 24.19692049 50.8203125 30.24609375 C51.32820313 31.15230469 51.83609375 32.05851562 52.359375 32.9921875 C57.69195758 44.20848549 58.04150364 59.34217646 54.93359375 71.296875 C53.78673422 74.4783624 52.47850153 77.30145077 50.8203125 80.24609375 C50.27761719 81.22707031 49.73492187 82.20804687 49.17578125 83.21875 C42.10128848 95.08409566 42.10128848 95.08409566 36.8203125 98.24609375 C31.95502881 99.09069996 27.80772978 97.50579418 23.5703125 95.18359375 C19.41550263 92.25029798 16.46274173 89.1194049 14.8203125 84.24609375 C14.43445364 79.87636746 14.52035175 75.61885484 14.8203125 71.24609375 C14.27503906 71.53484375 13.72976563 71.82359375 13.16796875 72.12109375 C6.89081843 75.21138314 1.48911063 76.74347405 -5.34765625 74.55078125 C-11.46109459 71.82095325 -15.60912562 67.48728329 -18.1796875 61.24609375 C-19.13240342 54.22608171 -18.73421841 48.68710538 -14.56640625 42.8671875 C-13.1755049 41.24120423 -11.71914812 39.7313798 -10.1796875 38.24609375 C-10.75976562 38.0759375 -11.33984375 37.90578125 -11.9375 37.73046875 C-18.29247009 35.75895988 -23.92427092 33.80372573 -27.5546875 27.87109375 C-30.24276229 22.02841879 -29.49700644 15.52195724 -29.1796875 9.24609375 C-19.41882192 3.84585155 -11.24080526 0.86998861 0 0 Z " fill="#6288CB" transform="translate(417.1796875,146.75390625)"/>
<path d="M0 0 C3.75212276 2.01502889 5.63644095 3.45466142 8 7 C8.37890625 9.62890625 8.37890625 9.62890625 8.5625 12.5625 C8.73929053 16.42660649 8.73929053 16.42660649 10 20 C10.99 20.33 11.98 20.66 13 21 C14.11754493 24.35263478 14.42449193 27.4236699 14.8125 30.9375 C16.85256149 47.26586859 23.84334665 63.52636557 36.7109375 74.26171875 C41.60112956 77.88581999 46.6307772 81.13641451 52 84 C52 84.33 52 84.66 52 85 C50.39125 85.37125 50.39125 85.37125 48.75 85.75 C44.95109965 87.01630012 43.39489014 87.86822059 41 91 C39.54738244 95.562584 39.44515211 100.26879709 40 105 C41.69244985 108.33107164 41.69244985 108.33107164 44 111 C48.2640545 116.74007336 49 124.00775248 49 131 C46 130 46 130 43.875 127.8125 C36.6459947 120.41389926 27.28492918 116.6901885 17.90136719 112.79785156 C16.09223805 112.03870492 14.29942423 111.2410182 12.5078125 110.44140625 C8.71824875 108.88422471 4.93910908 107.72725506 1 106.625 C-34.18373851 96.44642037 -34.18373851 96.44642037 -42.4375 83.5625 C-44.21435506 79.51127047 -44.53069001 77.38052019 -44 73 C-42.48078585 70.5046425 -40.5558954 68.61967505 -38.4375 66.625 C-37.66696289 65.82642578 -37.66696289 65.82642578 -36.88085938 65.01171875 C-33.02752302 61.24933071 -30.40425015 60.67397115 -25 60 C-17.54992344 54.20682047 -10.81239728 44.8190317 -9.49609375 35.390625 C-9.258846 27.8905347 -10.2891796 21.62544577 -13.125 14.68359375 C-14.12883689 11.60486186 -14.27497799 9.21990355 -14 6 C-10.18856077 0.28284116 -6.7887853 -0.93377344 0 0 Z " fill="#FDA97B" transform="translate(199,92)"/>
<path d="M0 0 C0.66 0.33 1.32 0.66 2 1 C2.48650841 2.77397579 2.88835704 4.57142163 3.25 6.375 C5.83668458 17.15712088 10.67847195 25.72863556 20 32 C26.72232428 35.51353482 33.56280934 37.63651505 41 39 C40.56880859 40.84464844 40.56880859 40.84464844 40.12890625 42.7265625 C38.83142451 48.57266086 37.87652007 54.46238694 36.9375 60.375 C36.76412109 61.43460938 36.59074219 62.49421875 36.41210938 63.5859375 C35.44823526 69.61292044 34.73082463 75.54737825 34.44360352 81.64697266 C33.90653262 84.49578347 33.00399689 85.92184666 31 88 C27.9375 88.4375 27.9375 88.4375 25 88 C22.78837339 84.68256008 22.78809668 83.49003052 22.6875 79.625 C22.38995996 75.45943941 22.22111872 74.28348553 19.5625 70.875 C15.94579874 68.22863323 13.60475496 67.57647846 9.046875 67.66796875 C6.69586943 67.91193601 6.69586943 67.91193601 3.9375 69.9375 C1.57012444 73.67948072 1.68579716 75.38918706 2.40234375 79.6328125 C2.97236875 81.89055859 3.7162949 83.95838791 4.5625 86.125 C7.14795868 93.51941184 7.48878256 101.92391571 4.79296875 109.3046875 C2.41642488 113.84117883 0.29671812 117.12306699 -4 120 C-6.57765356 114.89790133 -9.06814823 109.76447787 -11.5012207 104.59204102 C-14.92814249 97.30740356 -18.4118901 90.10587083 -22.3125 83.0625 C-30.83538482 67.56307654 -34.70033093 50.8482212 -31.26953125 33.25390625 C-26.53904231 19.30152552 -16.60615075 10.49283668 -3.9921875 3.70703125 C-0.93306052 2.3288587 -0.93306052 2.3288587 0 0 Z " fill="#2A428C" transform="translate(184,25)"/>
<path d="M0 0 C2.55336492 3.16242444 5.04615556 6.36307002 7.49902344 9.60400391 C24.28454495 31.6898716 44.5678269 45.0107002 70 56 C69.4098077 65.06029387 68.16014666 73.93555118 66.671875 82.88671875 C66.43819736 84.31501335 66.20499361 85.74338555 65.972229 87.17182922 C65.3599899 90.92276892 64.74255578 94.67283257 64.12359619 98.42266846 C63.02947065 105.05552525 61.94389403 111.68978558 60.859375 118.32421875 C60.74102798 119.04706936 60.62268097 119.76991997 60.50074768 120.51467514 C57.86084232 136.655421 55.41289267 152.82397283 53 169 C48.05 169 43.1 169 38 169 C38.31094086 166.45813394 38.62370536 163.91651402 38.9375 161.375 C39.06801758 160.30572266 39.06801758 160.30572266 39.20117188 159.21484375 C39.57556849 156.19193776 39.95795546 153.2120118 40.55078125 150.22265625 C44.27466162 123.50786228 36.48542337 99.92733996 26.35568237 75.68649292 C24.56450358 71.39563906 22.79441672 67.09609665 21.0234375 62.796875 C20.67411667 61.94943222 20.32479584 61.10198944 19.96488953 60.22886658 C13.7875308 45.2194308 7.87487896 30.13526942 2.875 14.6875 C2.57907959 13.7792749 2.28315918 12.8710498 1.97827148 11.93530273 C1.71473877 11.09427002 1.45120605 10.2532373 1.1796875 9.38671875 C0.95007324 8.65670654 0.72045898 7.92669434 0.48388672 7.17456055 C-0.06028588 4.72907855 -0.08273143 2.49755772 0 0 Z " fill="#2A438C" transform="translate(204,343)"/>
<path d="M0 0 C0.02578125 0.9178125 0.0515625 1.835625 0.078125 2.78125 C0.31650308 13.12671603 0.31650308 13.12671603 5 22 C9.57436573 25.46121209 14.23017219 27.55616709 20 28 C19.59007812 28.53109375 19.18015625 29.0621875 18.7578125 29.609375 C18.21898437 30.31578125 17.68015625 31.0221875 17.125 31.75 C16.59132813 32.44609375 16.05765625 33.1421875 15.5078125 33.859375 C11.39248063 39.70186688 11.1232832 44.95011233 12 52 C14.14283065 57.70195279 17.65283581 61.09393251 23 64 C30.35082636 66.45027545 36.98770081 64.78502663 44 62 C44.01417969 62.845625 44.02835937 63.69125 44.04296875 64.5625 C44.348027 71.81793954 44.82203035 77.59516054 50 83 C54.16383865 86.30132922 58.91640243 87.75503733 64 89 C60.27125068 93.57619235 55.29211844 95.68566249 50 98 C49.26007813 98.32484375 48.52015625 98.6496875 47.7578125 98.984375 C34.15311301 103.97433398 18.85651434 101.51215102 6.0390625 95.64453125 C-7.46355994 88.74524609 -16.69402831 77.9616076 -22.0625 63.8125 C-26.32359336 49.44610536 -25.32159848 33.21444259 -18.3515625 19.8359375 C-16.6757151 17.12091834 -14.91369308 14.55159077 -13 12 C-12.56558594 11.40703125 -12.13117188 10.8140625 -11.68359375 10.203125 C-3.71568943 0 -3.71568943 0 0 0 Z " fill="#4F71B6" transform="translate(388,156)"/>
<path d="M0 0 C1.30941581 2.43177222 2.08719417 4.39633715 2.6875 7.125 C3.77585102 10.40100279 3.77585102 10.40100279 7.625 11.375 C8.73875 11.58125 9.8525 11.7875 11 12 C11 12.99 11 13.98 11 15 C9.34254923 16.38684656 7.68239718 17.77061019 6.0078125 19.13671875 C-4.63147954 29.01014736 -9.83864009 43.2937417 -10.45776367 57.50439453 C-10.71507259 71.56565741 -6.89462325 82.92489872 2 94 C2.8971875 95.3303125 2.8971875 95.3303125 3.8125 96.6875 C13.32730365 106.74600671 27.54067665 113.04709503 41.34228516 113.4309082 C54.62329081 113.47033938 64.7964919 110.32537068 76 103 C77.485 103.495 77.485 103.495 79 104 C79.48751995 106.01508246 79.97110762 108.03155548 80.40625 110.05859375 C80.89430193 112.19744791 80.89430193 112.19744791 82.9375 113.9375 C85.10169247 115.11908489 85.10169247 115.11908489 88 116 C88 116.66 88 117.32 88 118 C68.14661125 129.9410163 47.32181668 136.02421556 24.125 130.5 C10.43034631 126.20451846 -0.04752838 119.19374366 -10 109 C-10.66515625 108.35546875 -11.3303125 107.7109375 -12.015625 107.046875 C-26.79426197 91.73567454 -29.6014986 71.85189743 -29.33984375 51.5234375 C-29.06623314 43.58305322 -27.4191799 37.22116876 -24 30 C-23.50371094 28.88882813 -23.00742187 27.77765625 -22.49609375 26.6328125 C-17.19466062 15.77445549 -9.32504567 7.55862733 0 0 Z " fill="#3C58A0" transform="translate(375,143)"/>
<path d="M0 0 C0.7115625 0.73476563 1.423125 1.46953125 2.15625 2.2265625 C9.47764335 9.36693239 17.63101314 14.65964483 26.796875 19.1015625 C35.83644914 24.45916376 39.26577302 29.45223693 42 39.5625 C42.65758216 41.795416 43.3191263 44.02716857 43.984375 46.2578125 C44.31373047 47.3809082 44.64308594 48.50400391 44.98242188 49.66113281 C46.55506989 54.82128979 48.3822595 59.87801217 50.25 64.9375 C50.56710938 65.80511963 50.88421875 66.67273926 51.2109375 67.56665039 C53.12542981 72.76262676 55.17245897 77.88104752 57.35449219 82.97094727 C58 85 58 85 57 87 C56.01 86.67 55.02 86.34 54 86 C47.11552849 85.28605481 41.35545267 85.25707706 35.62109375 89.4296875 C32.9671364 92.00050883 31.5746054 94.66183655 30 98 C29.67 98.66 29.34 99.32 29 100 C28.34 100 27.68 100 27 100 C24.94610725 95.4366097 22.9019754 90.86900503 20.8659668 86.29760742 C20.17513767 84.74992605 19.48186187 83.20333396 18.78588867 81.65795898 C7.2256999 55.97514249 -1.29225277 28.47742207 0 0 Z " fill="#9ED133" transform="translate(164,311)"/>
<path d="M0 0 C3.51356286 1.19975317 3.85075847 2.58845626 5.5625 5.875 C6.43229948 7.36962378 7.33103568 8.84759182 8.25 10.3125 C8.68699219 11.03308594 9.12398437 11.75367188 9.57421875 12.49609375 C15.32833914 19.38068966 23.50415296 23.1509347 31.375 27.125 C33.59525416 28.26262654 35.81530403 29.40065185 38.03515625 30.5390625 C39.13230957 31.09883789 40.22946289 31.65861328 41.35986328 32.23535156 C46.02757378 34.62507132 50.67223772 37.05751415 55.3125 39.5 C56.46262573 40.10183105 56.46262573 40.10183105 57.63598633 40.71582031 C65.32385535 44.75648992 70.58538965 47.83667124 74.5625 55.875 C75.99055772 60.89012214 76.5625 65.66919636 76.5625 70.875 C73.5625 69.875 73.5625 69.875 71.4375 67.6875 C64.2084947 60.28889926 54.84742918 56.5651885 45.46386719 52.67285156 C43.65473805 51.91370492 41.86192423 51.1160182 40.0703125 50.31640625 C36.28074875 48.75922471 32.50160908 47.60225506 28.5625 46.5 C-6.62123851 36.32142037 -6.62123851 36.32142037 -14.875 23.4375 C-16.6550603 19.37896251 -16.99236984 17.26266822 -16.4375 12.875 C-14.80230947 10.38606636 -12.76365653 8.48960373 -10.5625 6.5 C-10.00691406 5.96761719 -9.45132813 5.43523437 -8.87890625 4.88671875 C-3.52760123 -0.18090263 -3.52760123 -0.18090263 0 0 Z " fill="#9ED233" transform="translate(171.4375,152.125)"/>
<path d="M0 0 C3.89525641 1.58695632 6.52855275 3.58358763 9 7 C8.55936932 15.95949057 3.17127441 24.2344125 -1 32 C-1.58265625 33.093125 -2.1653125 34.18625 -2.765625 35.3125 C-6.79322358 42.53959278 -11.57711649 48.76827963 -17 55 C-17.69867188 55.83273437 -18.39734375 56.66546875 -19.1171875 57.5234375 C-29.0555551 69.06359329 -40.60222788 77.85713666 -54 85 C-55.15113281 85.64324219 -56.30226562 86.28648437 -57.48828125 86.94921875 C-60.80497897 88.55884996 -63.32392078 89.67786935 -67 90 C-71.08162845 88.00126442 -73.97776609 85.36334383 -77 82 C-74.20335381 80.13556921 -71.41326065 78.80250981 -68.35229492 77.43823242 C-34.60144786 62.27384328 -13.29278269 33.73006436 0 0 Z " fill="#D8DFFB" transform="translate(308,293)"/>
<path d="M0 0 C5.66173542 2.53689299 10.00052718 6.78621061 12.78125 12.34765625 C13.7672526 26.07584635 13.7672526 26.07584635 9.78125 31.34765625 C4.89857843 36.32677565 0.5568282 39.33493231 -6.53125 39.72265625 C-12.14423039 39.57322582 -16.66741061 37.76948603 -20.7578125 33.88671875 C-25.72048596 28.16948675 -26.72865732 23.83865627 -26.6015625 16.39453125 C-25.86145306 10.50386427 -22.90551771 6.91100193 -18.65625 2.97265625 C-12.66147015 -1.02386365 -7.06379365 -2.07685482 0 0 Z " fill="#D8E0FD" transform="translate(425.21875,182.65234375)"/>
<path d="M0 0 C0.83144531 0.63228516 0.83144531 0.63228516 1.6796875 1.27734375 C2.40414062 1.82519531 3.12859375 2.37304688 3.875 2.9375 C4.59429687 3.48277344 5.31359375 4.02804687 6.0546875 4.58984375 C7.94357079 6.03964624 7.94357079 6.03964624 10 7 C3.8824289 20.39487132 -13.66934608 29.65645666 -26.25683594 36.10058594 C-27.74442363 36.86813118 -29.20727857 37.68329843 -30.6640625 38.5078125 C-33.04499355 39.64359233 -34.36640829 40.22475922 -37 40 C-40.79173003 37.77966587 -43.88767355 35.08633625 -47 32 C-44.20335381 30.13556921 -41.41326065 28.80250981 -38.35229492 27.43823242 C-23.45056413 20.74282581 -11.50641182 11.50641182 0 0 Z " fill="#AAB8F0" transform="translate(278,343)"/>
<path d="M0 0 C4.48842324 1.83430996 8.71354171 4.0469294 12.984375 6.3359375 C13.82162109 6.77873047 14.65886719 7.22152344 15.52148438 7.67773438 C17.82953656 8.90394421 20.12750158 10.14686338 22.421875 11.3984375 C23.37578125 11.91535156 24.3296875 12.43226563 25.3125 12.96484375 C29.94638744 16.11417096 32.72979613 20.96796149 34.24609375 26.29296875 C35.02240157 30.4057485 35.421875 34.20584088 35.421875 38.3984375 C32.421875 37.3984375 32.421875 37.3984375 30.296875 35.2109375 C21.95355835 26.67188322 10.37706307 22.50494894 -0.5390625 18.2421875 C-6.1667777 15.98381635 -6.1667777 15.98381635 -8.203125 13.0859375 C-8.70261938 9.5062278 -8.53239122 6.89741362 -7.578125 3.3984375 C-3.9001589 -0.91003708 -3.9001589 -0.91003708 0 0 Z " fill="#B9E74B" transform="translate(212.578125,184.6015625)"/>
</svg>
